<svg id="Capa_1" enable-background="new 0 0 512 512" height="512" viewBox="0 0 512 512" width="512" xmlns="http://www.w3.org/2000/svg"><g><path d="m251.308 343.014 23.518-21.618c3.05-2.803 3.25-7.548.446-10.598-2.802-3.049-7.548-3.25-10.597-.446l-18.666 17.157v-12.368c0-4.142-3.357-7.5-7.5-7.5s-7.5 3.358-7.5 7.5v58.077c0 4.142 3.357 7.5 7.5 7.5s7.5-3.358 7.5-7.5v-14.473l20.596 19.87c1.455 1.404 3.332 2.103 5.206 2.103 1.965 0 3.927-.767 5.398-2.292 2.876-2.981 2.791-7.729-.19-10.605z"/><path d="m192.011 329.467c-1.891 0-3.573.077-5.108.226l2.191-13.23h19.702c4.143 0 7.5-3.358 7.5-7.5s-3.357-7.5-7.5-7.5h-26.062c-3.669 0-6.8 2.654-7.399 6.274l-5.163 31.162c-.462 2.79.699 5.594 2.979 7.266s5.32 1.912 7.844.633c.059-.03.252-.125.555-.261 2.779-1.251 5.01-2.071 10.462-2.071 3.796 0 7.328 1.519 9.946 4.277 2.616 2.755 3.948 6.37 3.75 10.178-.37 7.13-6.261 12.829-13.41 12.973-6.902.132-12.91-4.928-13.869-11.796-.087-.625-.132-1.27-.132-1.916 0-4.142-3.357-7.5-7.5-7.5s-7.5 3.358-7.5 7.5c0 1.342.094 2.688.277 3.996 1.98 14.189 14.15 24.721 28.439 24.72.194 0 .392-.002.587-.006 14.974-.302 27.312-12.247 28.088-27.192.412-7.957-2.376-15.515-7.853-21.283-5.4-5.689-12.989-8.95-20.824-8.95z"/><path d="m279.598 344.18c0 20.147 16.392 36.539 36.539 36.539 19.175 0 32.567-15.025 32.567-36.539 0-4.142-3.357-7.5-7.5-7.5h-17.373c-4.143 0-7.5 3.358-7.5 7.5s3.357 7.5 7.5 7.5h8.966c-1.891 7.479-6.911 14.039-16.66 14.039-11.877 0-21.539-9.662-21.539-21.539 0-11.876 9.662-21.539 21.539-21.539 4.317 0 8.48 1.27 12.036 3.674 3.436 2.319 8.095 1.417 10.414-2.016 2.318-3.432 1.416-8.094-2.016-10.413-6.047-4.085-13.113-6.245-20.435-6.245-20.147 0-36.538 16.391-36.538 36.539z"/><path d="m378.104 153.259 11.456-90.918c2.669-19.464-5.38-39.023-21.006-51.044-9.469-7.285-21.603-11.297-34.165-11.297h-30.947c-4.143 0-7.5 3.358-7.5 7.5s3.357 7.5 7.5 7.5h30.947c9.272 0 18.158 2.907 25.02 8.185 11.372 8.749 17.231 22.971 15.28 37.199l-10.652 84.534c-11.875-6.474-24.389-11.912-37.42-16.202l7.372-58.51c.512-4.062-.747-8.152-3.455-11.222-2.707-3.07-6.608-4.832-10.702-4.832h-127.663c-4.094 0-7.994 1.761-10.702 4.831-2.707 3.07-3.967 7.16-3.456 11.222l7.365 58.459c-12.947 4.234-25.473 9.621-37.432 16.108l-10.642-84.465c-1.943-14.149 3.916-28.373 15.291-37.122 6.863-5.278 15.749-8.185 25.02-8.185h93.142c4.143 0 7.5-3.358 7.5-7.5s-3.357-7.5-7.5-7.5h-93.142c-12.561 0-24.694 4.011-34.165 11.295-15.631 12.023-23.681 31.586-21.019 50.97l11.441 90.808c-19.228 12.308-36.714 27.598-51.773 45.574-2.66 3.175-2.242 7.906.933 10.565 3.176 2.661 7.906 2.243 10.565-.933 40.437-48.27 99.556-75.859 162.419-75.859.534 0 1.071.002 1.607.006 113.505.848 206.029 91.726 209.988 204.252h-87.857c-3.892-64.885-57.905-116.483-123.752-116.483s-119.861 51.598-123.752 116.485h-87.872c1.28-36.389 11.86-71.766 30.796-102.755 2.16-3.535 1.046-8.15-2.488-10.311-3.537-2.159-8.151-1.045-10.311 2.489-21.675 35.469-33.131 76.299-33.131 118.076 0 50.998 16.541 99.167 47.834 139.298 13.926 17.86 35.967 28.523 58.96 28.523h239.926c23.002 0 45.059-10.681 59-28.571 8.328-10.686 15.73-22.171 22.003-34.137 1.923-3.669.508-8.202-3.16-10.125-3.671-1.921-8.201-.509-10.125 3.161-5.857 11.173-12.771 21.9-20.55 31.881-11.121 14.271-28.754 22.791-47.168 22.791h-239.926c-18.406 0-36.025-8.503-47.131-22.746-27.68-35.498-42.988-77.735-44.525-122.574h87.868c3.891 64.886 57.905 116.485 123.752 116.485s119.86-51.599 123.752-116.485h87.865c-.747 21.506-4.701 42.591-11.799 62.769-1.374 3.907.679 8.189 4.586 9.564.824.289 1.663.427 2.489.427 3.094 0 5.99-1.929 7.075-5.013 8.4-23.878 12.703-48.932 12.789-74.464.271-80.251-41.559-151.163-104.653-191.704zm-122.091-35.838c-19.131 0-37.936 2.394-56.053 6.997l-6.963-55.265h126.005l-6.968 55.305c-17.393-4.447-35.578-6.89-54.301-7.03-.577-.004-1.144-.007-1.72-.007zm-.013 335.744c-60.095 0-108.985-48.891-108.985-108.985s48.891-108.985 108.985-108.985 108.985 48.891 108.985 108.985-48.89 108.985-108.985 108.985z"/></g></svg>